<svg width="329" height="129" viewBox="0 0 329 129" fill="none" xmlns="http://www.w3.org/2000/svg">
<path d="M94.5 56C94.5 81.129 74.129 101.5 49 101.5C23.871 101.5 3.5 81.129 3.5 56C3.5 55.3903 3.565 54.9854 3.63421 54.7339C3.66796 54.6112 3.70081 54.5319 3.72346 54.4854C3.73575 54.4601 3.74551 54.4435 3.75177 54.4338C3.75259 54.4333 3.75346 54.4329 3.75437 54.4325C3.79192 54.4141 3.92456 54.359 4.21028 54.3274C4.82705 54.2593 5.8186 54.335 7.27626 54.6957C8.6994 55.0479 10.3663 55.6197 12.2606 56.3742C15.2207 57.5533 18.4889 59.0753 21.9884 60.7049C23.0067 61.1791 24.0446 61.6624 25.1001 62.1491C29.6973 64.2685 34.574 66.4228 39.1773 67.8776C43.6981 69.3064 48.4349 70.2237 52.5986 69.416C54.7509 68.9985 56.7999 68.1105 58.5429 66.5698C60.2834 65.0312 61.5455 62.9951 62.3625 60.5451C63.9554 55.7686 63.9461 49.1575 62.3845 40.4443C60.9924 32.677 58.3056 22.925 54.0647 10.7787C76.81 13.2977 94.5 32.583 94.5 56Z" fill="#6366F1" stroke="#6366F1" stroke-width="7"/>
<path d="M147.038 55.01C148.758 52.3727 150.908 50.3087 153.488 48.818C156.068 47.27 158.935 46.496 162.088 46.496V62.062H158.046C154.377 62.062 151.625 62.8647 149.79 64.47C147.955 66.018 147.038 68.77 147.038 72.726V95H132.332V47.012H147.038V55.01ZM214.353 70.232C214.353 71.608 214.267 73.0413 214.095 74.532H180.813C181.042 77.5133 181.988 79.8067 183.651 81.412C185.371 82.96 187.464 83.734 189.929 83.734C193.598 83.734 196.15 82.186 197.583 79.09H213.235C212.432 82.2433 210.97 85.0813 208.849 87.604C206.785 90.1267 204.176 92.1047 201.023 93.538C197.87 94.9713 194.344 95.688 190.445 95.688C185.744 95.688 181.558 94.6847 177.889 92.678C174.22 90.6713 171.353 87.8047 169.289 84.078C167.225 80.3513 166.193 75.994 166.193 71.006C166.193 66.018 167.196 61.6607 169.203 57.934C171.267 54.2073 174.134 51.3407 177.803 49.334C181.472 47.3273 185.686 46.324 190.445 46.324C195.089 46.324 199.217 47.2987 202.829 49.248C206.441 51.1973 209.25 53.978 211.257 57.59C213.321 61.202 214.353 65.416 214.353 70.232ZM199.303 66.362C199.303 63.8393 198.443 61.8327 196.723 60.342C195.003 58.8513 192.853 58.106 190.273 58.106C187.808 58.106 185.715 58.8227 183.995 60.256C182.332 61.6893 181.3 63.7247 180.899 66.362H199.303ZM243.697 81.24L254.103 47.012H269.755L252.727 95H234.581L217.553 47.012H233.291L243.697 81.24ZM273.021 70.92C273.021 65.9893 273.939 61.6607 275.773 57.934C277.665 54.2073 280.217 51.3407 283.427 49.334C286.638 47.3273 290.221 46.324 294.177 46.324C297.56 46.324 300.513 47.012 303.035 48.388C305.615 49.764 307.593 51.57 308.969 53.806V47.012H323.675V95H308.969V88.206C307.536 90.442 305.529 92.248 302.949 93.624C300.427 95 297.474 95.688 294.091 95.688C290.193 95.688 286.638 94.6847 283.427 92.678C280.217 90.614 277.665 87.7187 275.773 83.992C273.939 80.208 273.021 75.8507 273.021 70.92ZM308.969 71.006C308.969 67.3367 307.937 64.4413 305.873 62.32C303.867 60.1987 301.401 59.138 298.477 59.138C295.553 59.138 293.059 60.1987 290.995 62.32C288.989 64.384 287.985 67.2507 287.985 70.92C287.985 74.5893 288.989 77.5133 290.995 79.692C293.059 81.8133 295.553 82.874 298.477 82.874C301.401 82.874 303.867 81.8133 305.873 79.692C307.937 77.5707 308.969 74.6753 308.969 71.006Z" fill="#1F2937"/>
</svg>
